<?xml version="1.0" encoding="utf-8"?>
<!-- Generator: Adobe Illustrator 21.1.0, SVG Export Plug-In . SVG Version: 6.00 Build 0)  -->
<svg version="1.1" id="Layer_1" xmlns="http://www.w3.org/2000/svg" xmlns:xlink="http://www.w3.org/1999/xlink" x="0px" y="0px"
	 viewBox="0 0 135 3" style="enable-background:new 0 0 135 3;" xml:space="preserve">
<style type="text/css">
	.st0{fill:#231F20;}
</style>
<title>dots</title>
<path class="st0" d="M1.5,3C1.1,3,0.7,2.8,0.4,2.6C0.2,2.3,0,1.9,0,1.5c0-0.1,0-0.2,0-0.3c0-0.1,0-0.2,0.1-0.3
	c0-0.1,0.1-0.2,0.1-0.3c0.1-0.1,0.1-0.2,0.2-0.2C1-0.1,2-0.1,2.6,0.4c0.1,0.1,0.1,0.1,0.2,0.2c0,0.1,0.1,0.2,0.1,0.3
	C2.9,1,2.9,1.1,3,1.2c0,0.1,0,0.2,0,0.3c0,0.4-0.2,0.8-0.4,1.1C2.3,2.8,1.9,3,1.5,3z"/>
<path class="st0" d="M11,1.5C11,0.7,11.7,0,12.5,0l0,0C13.3,0,14,0.7,14,1.5l0,0C14,2.3,13.3,3,12.5,3l0,0C11.7,3,11,2.3,11,1.5z"/>
<path class="st0" d="M22,1.5C22,0.7,22.6,0,23.5,0l0,0C24.3,0,25,0.7,25,1.5l0,0C25,2.3,24.3,3,23.5,3l0,0C22.6,3,22,2.3,22,1.5z"/>
<path class="st0" d="M33,1.5C33,0.7,33.6,0,34.5,0l0,0C35.3,0,36,0.7,36,1.5l0,0C36,2.3,35.3,3,34.5,3l0,0C33.6,3,33,2.3,33,1.5z"/>
<path class="st0" d="M44,1.5C44,0.7,44.6,0,45.5,0l0,0C46.3,0,47,0.7,47,1.5l0,0C47,2.3,46.3,3,45.5,3l0,0C44.6,3,44,2.3,44,1.5z"/>
<path class="st0" d="M54.9,1.5c0-0.8,0.7-1.5,1.5-1.5l0,0c0.8,0,1.5,0.7,1.5,1.5l0,0c0,0.8-0.7,1.5-1.5,1.5l0,0
	C55.6,3,54.9,2.3,54.9,1.5z"/>
<path class="st0" d="M65.9,1.5c0-0.8,0.7-1.5,1.5-1.5l0,0c0.8,0,1.5,0.7,1.5,1.5l0,0c0,0.8-0.7,1.5-1.5,1.5l0,0
	C66.6,3,65.9,2.3,65.9,1.5z"/>
<path class="st0" d="M76.9,1.5c0-0.8,0.7-1.5,1.5-1.5l0,0c0.8,0,1.5,0.7,1.5,1.5l0,0c0,0.8-0.7,1.5-1.5,1.5l0,0
	C77.6,3,76.9,2.3,76.9,1.5z"/>
<path class="st0" d="M87.9,1.5c0-0.8,0.7-1.5,1.5-1.5l0,0c0.8,0,1.5,0.7,1.5,1.5l0,0c0,0.8-0.7,1.5-1.5,1.5l0,0
	C88.6,3,87.9,2.3,87.9,1.5z"/>
<path class="st0" d="M98.9,1.5c0-0.8,0.7-1.5,1.5-1.5l0,0c0.8,0,1.5,0.7,1.5,1.5l0,0c0,0.8-0.7,1.5-1.5,1.5l0,0
	C99.6,3,98.9,2.3,98.9,1.5z"/>
<path class="st0" d="M109.9,1.5c0-0.8,0.7-1.5,1.5-1.5l0,0c0.8,0,1.5,0.7,1.5,1.5l0,0c0,0.8-0.7,1.5-1.5,1.5l0,0
	C110.6,3,109.9,2.3,109.9,1.5z"/>
<path class="st0" d="M120.9,1.5c0-0.8,0.7-1.5,1.5-1.5l0,0c0.8,0,1.5,0.7,1.5,1.5l0,0c0,0.8-0.7,1.5-1.5,1.5l0,0
	C121.6,3,120.9,2.3,120.9,1.5z"/>
<path class="st0" d="M131.9,1.5c0-0.8,0.7-1.5,1.5-1.5l0,0c0.8,0,1.5,0.7,1.5,1.5l0,0c0,0.8-0.7,1.5-1.5,1.5l0,0
	C132.5,3,131.9,2.3,131.9,1.5z"/>
</svg>
