<svg xmlns="http://www.w3.org/2000/svg" width="263.29" height="119.17" viewBox="0 0 263.29 119.17">
  <defs>
    <style>
      .a {
        fill: #231f20;
      }
    </style>
  </defs>
  <title>flourish-logo</title>
  <g>
    <path class="a" d="M131.64,105.64,135,102c18.77-20,19-58.66.67-94.1L131.61,0l-4.12,7.91c-18.28,35.08-18,73.77.77,94.07Z"/>
    <path class="a" d="M141.57,118.36l4.3.3q.83.06,1.66.06c8.82,0,18.79-4.76,27-13,8.78-8.8,13.63-19.55,13-28.76l-.38-5.18-5.1,1c-22,4.12-40.52,23-40.45,41.31Z"/>
    <path class="a" d="M74.68,73.17,75,78.22c1,13.4,10.51,25.51,19.11,32.37,7,5.6,14.19,8.57,20.53,8.57a19,19,0,0,0,2.87-.21l3.9-.6,0-3.94c.19-19.67-21.27-40.83-41.74-41.16Z"/>
    <rect class="a" x="157.02" y="15.83" width="31.93" height="9.27" transform="translate(117.88 185.71) rotate(-78.3)"/>
    <rect class="a" x="197.7" y="27.44" width="31.93" height="9.27" transform="translate(101.82 216.94) rotate(-67.36)"/>
    <rect class="a" x="234.43" y="47.11" width="31.93" height="9.27" transform="translate(65.34 228.19) rotate(-55.31)"/>
    <path class="a" d="M229.11,82.71,233,85.28l5.14-7.72L234.26,75A184.06,184.06,0,0,0,167.36,47.4l-4.55-.89L161,55.61l4.55.89A174.82,174.82,0,0,1,229.11,82.71Z"/>
    <rect class="a" x="85.66" y="4.5" width="9.27" height="31.93" transform="translate(-2.27 18.73) rotate(-11.7)"/>
    <rect class="a" x="44.99" y="16.11" width="9.27" height="31.93" transform="translate(-8.52 21.57) rotate(-22.64)"/>
    <rect class="a" x="8.26" y="35.78" width="9.27" height="31.93" transform="translate(-27.15 16.53) rotate(-34.68)"/>
    <path class="a" d="M30.32,85.28l3.86-2.57A174.84,174.84,0,0,1,97.71,56.5l4.55-.89-1.79-9.1-4.55.89A184.06,184.06,0,0,0,29,75l-3.86,2.57Z"/>
  </g>
</svg>
