<svg xmlns="http://www.w3.org/2000/svg" width="149.31" height="100.47" viewBox="0 0 149.31 100.47">
  <defs>
    <style>
      .a {
        fill: #231f20;
      }
    </style>
  </defs>
  <title>flourish-dot-diamond</title>
  <g>
    <circle class="a" cx="74.55" cy="5.98" r="5.98"/>
    <circle class="a" cx="74.55" cy="28.11" r="5.98"/>
    <circle class="a" cx="74.55" cy="50.23" r="5.98"/>
    <circle class="a" cx="74.55" cy="72.36" r="5.98"/>
    <circle class="a" cx="74.55" cy="94.49" r="5.98"/>
    <circle class="a" cx="28.84" cy="28.17" r="5.98"/>
    <circle class="a" cx="28.84" cy="50.3" r="5.98"/>
    <circle class="a" cx="28.84" cy="72.43" r="5.98"/>
    <circle class="a" cx="120.2" cy="28.17" r="5.98"/>
    <circle class="a" cx="120.2" cy="50.3" r="5.98"/>
    <circle class="a" cx="120.2" cy="72.43" r="5.98"/>
    <circle class="a" cx="97.4" cy="17.28" r="5.98"/>
    <circle class="a" cx="97.4" cy="39.4" r="5.98"/>
    <circle class="a" cx="97.4" cy="61.53" r="5.98"/>
    <circle class="a" cx="97.4" cy="83.66" r="5.98"/>
    <circle class="a" cx="5.98" cy="50.35" r="5.98"/>
    <circle class="a" cx="143.33" cy="50.35" r="5.98"/>
    <circle class="a" cx="51.69" cy="17.39" r="5.98"/>
    <circle class="a" cx="51.69" cy="39.52" r="5.98"/>
    <circle class="a" cx="51.69" cy="61.65" r="5.98"/>
    <circle class="a" cx="51.69" cy="83.77" r="5.98"/>
  </g>
</svg>
