<?xml version="1.0" encoding="utf-8"?>
<!-- Generator: Adobe Illustrator 21.1.0, SVG Export Plug-In . SVG Version: 6.00 Build 0)  -->
<svg version="1.1" xmlns="http://www.w3.org/2000/svg" xmlns:xlink="http://www.w3.org/1999/xlink" x="0px" y="0px"
	 viewBox="0 0 3 312" style="enable-background:new 0 0 3 312;" xml:space="preserve">
<style type="text/css">
	.st0{display:none;}
	.st1{display:inline;fill:#9BBDAA;}
	.st2{fill:#9BBDAA;}
</style>
<g id="Layer_1" class="st0">
	<title>flourish-green-dots_1</title>
	<path class="st1" d="M0,310.5c0-0.8,0.7-1.5,1.5-1.5l0,0c0.8,0,1.5,0.7,1.5,1.5l0,0c0,0.8-0.7,1.5-1.5,1.5l0,0
		C0.7,312,0,311.3,0,310.5C0,310.5,0,310.5,0,310.5z M0,299.5c0-0.8,0.7-1.5,1.5-1.5l0,0c0.8,0,1.5,0.7,1.5,1.5l0,0
		c0,0.8-0.7,1.5-1.5,1.5l0,0C0.7,300.9,0,300.3,0,299.5L0,299.5z M0,288.5c0-0.8,0.7-1.5,1.5-1.5l0,0c0.8,0,1.5,0.6,1.5,1.4l0,0
		c0,0.8-0.7,1.5-1.5,1.5l0,0C0.7,289.9,0,289.2,0,288.5L0,288.5z M0,277.5c0-0.8,0.7-1.5,1.5-1.5l0,0c0.8,0,1.4,0.6,1.5,1.4l0,0
		c0,0.8-0.7,1.5-1.5,1.5c0,0,0,0,0,0l0,0c-0.8,0-1.5-0.7-1.5-1.5V277.5z M0,266.5c0-0.8,0.7-1.5,1.5-1.5l0,0c0.8,0,1.5,0.7,1.5,1.5
		l0,0c0,0.8-0.7,1.5-1.5,1.5l0,0C0.7,268,0,267.3,0,266.5c0,0,0-0.1,0-0.1V266.5z M0,255.5c0-0.8,0.7-1.5,1.5-1.5l0,0
		c0.8,0,1.4,0.6,1.5,1.3l0,0c0,0.8-0.7,1.5-1.5,1.5l0,0c-0.8,0-1.5-0.7-1.5-1.5V255.5z M0,244.5c0-0.8,0.7-1.5,1.5-1.5l0,0
		c0.8,0,1.5,0.7,1.5,1.5l0,0c0,0.8-0.7,1.5-1.5,1.5l0,0C0.7,246,0,245.3,0,244.5c0-0.1,0-0.1,0-0.2V244.5z M0,233.5
		c0-0.8,0.7-1.5,1.5-1.5l0,0c0.8,0,1.5,0.7,1.5,1.5l0,0c0,0.8-0.7,1.5-1.5,1.5l0,0C0.7,235,0,234.3,0,233.5c0-0.1,0-0.2,0-0.2V233.5
		z M0,222.5c0-0.8,0.7-1.5,1.5-1.5l0,0c0.8,0,1.5,0.7,1.5,1.5l0,0c0,0.8-0.7,1.5-1.5,1.5l0,0C0.7,224,0,223.3,0,222.5
		c0-0.1,0-0.2,0-0.3V222.5z M0,211.5c0-0.8,0.7-1.5,1.5-1.5l0,0c0.8,0,1.5,0.7,1.5,1.5l0,0c0,0.8-0.7,1.5-1.5,1.5l0,0
		C0.7,213,0,212.3,0,211.5c0-0.1,0-0.2,0-0.3V211.5z M0,200.5c0-0.8,0.7-1.5,1.5-1.5l0,0c0.7,0,1.3,0.5,1.5,1.1l0,0
		c0,0.8-0.7,1.5-1.5,1.5l0,0c-0.8,0-1.5-0.7-1.5-1.5V200.5z M0,189.5c0-0.8,0.7-1.5,1.5-1.5l0,0c0.8,0,1.5,0.7,1.5,1.5l0,0
		c0,0.8-0.7,1.5-1.5,1.5l0,0C0.7,191,0,190.3,0,189.5c-0.1-0.1,0-0.2,0-0.4V189.5z M0,178.5c0-0.8,0.7-1.5,1.5-1.5l0,0
		c0.7,0,1.3,0.4,1.5,1.1l0,0c0,0.8-0.7,1.5-1.5,1.5l0,0c-0.8,0-1.5-0.7-1.5-1.5V178.5z M0,167.5c0-0.8,0.7-1.5,1.5-1.5l0,0
		c0.7,0,1.3,0.4,1.5,1l0,0c0,0.8-0.7,1.5-1.5,1.5l0,0c-0.8,0-1.5-0.7-1.5-1.5V167.5z M0,156.5c0-0.8,0.7-1.5,1.5-1.5l0,0
		c0.7,0,1.3,0.4,1.5,1l0,0c0,0.8-0.7,1.5-1.5,1.5l0,0c-0.8,0-1.5-0.7-1.5-1.5V156.5z M0,145.5c0-0.8,0.7-1.5,1.5-1.5l0,0
		c0.7,0,1.3,0.4,1.5,1l0,0c0,0.8-0.7,1.5-1.5,1.5l0,0c-0.8,0-1.5-0.7-1.5-1.5V145.5z M0,134.5c0-0.8,0.7-1.5,1.5-1.5l0,0
		c0.8,0,1.5,0.7,1.5,1.5l0,0c0,0.8-0.7,1.5-1.5,1.5l0,0C0.7,136,0,135.4,0,134.5c-0.1-0.1-0.1-0.3,0-0.6V134.5z M0,123.5
		c0-0.8,0.7-1.5,1.5-1.5l0,0c0.8,0,1.5,0.7,1.5,1.5l0,0c0,0.8-0.7,1.5-1.5,1.5l0,0c-0.8,0.1-1.6-0.5-1.6-1.4c0-0.2,0-0.5,0.1-0.7
		V123.5z M0,112.5c0-0.8,0.7-1.5,1.5-1.5l0,0c0.8,0,1.5,0.7,1.5,1.5l0,0c0,0.8-0.7,1.5-1.5,1.5l0,0c-0.8,0.1-1.6-0.6-1.6-1.4
		c0-0.3,0-0.5,0.1-0.7V112.5z M0,101.5c0-0.8,0.7-1.5,1.5-1.5l0,0c0.8,0,1.5,0.7,1.5,1.5l0,0c0,0.8-0.7,1.5-1.5,1.5l0,0
		c-0.8,0.1-1.6-0.5-1.6-1.3c0-0.3,0-0.6,0.1-0.8V101.5z M0,90.5C0,89.6,0.7,89,1.5,89l0,0c0.6-0.1,1.2,0.3,1.5,0.8l0,0
		c0,0.8-0.7,1.5-1.5,1.5l0,0c-0.8,0-1.5-0.7-1.5-1.5V90.5z M0,79.5C0,78.6,0.7,78,1.5,78l0,0c0.6-0.1,1.2,0.2,1.5,0.8l0,0
		c0,0.8-0.7,1.5-1.5,1.5l0,0c-0.8,0-1.5-0.7-1.5-1.5V79.5z M0,68.5C0,67.6,0.7,67,1.5,67l0,0c0.6-0.1,1.2,0.2,1.5,0.7l0,0
		c0,0.8-0.7,1.5-1.5,1.5l0,0c-0.8,0-1.5-0.7-1.5-1.5V68.5z M0,57.5C0,56.6,0.7,56,1.5,56l0,0c0.6-0.1,1.2,0.2,1.5,0.7l0,0
		c0,0.8-0.7,1.5-1.5,1.5l0,0c-0.8,0-1.5-0.7-1.5-1.5V57.5z M0,46.5C0,45.6,0.7,45,1.5,45l0,0c0.6-0.1,1.2,0.2,1.5,0.7l0,0
		c0,0.8-0.7,1.5-1.5,1.5l0,0c-0.8,0-1.5-0.7-1.5-1.5V46.5z M0,35.5C0,34.6,0.7,34,1.5,34l0,0c0.6-0.1,1.2,0.1,1.5,0.6l0,0
		c0,0.8-0.7,1.5-1.5,1.5l0,0c-0.8,0-1.5-0.7-1.5-1.5V35.5z M0,24.5C0,23.6,0.7,23,1.5,23l0,0c0.6-0.1,1.2,0.1,1.5,0.6l0,0
		c0,0.8-0.7,1.5-1.5,1.5l0,0c-0.8,0-1.5-0.7-1.5-1.5V24.5z M0,13.5c-0.6-0.6-0.5-1.6,0.1-2.1C0.5,11,1,10.9,1.5,11l0,0
		C2.3,11,3,11.7,3,12.5c0,0,0,0,0,0l0,0C3,13.3,2.3,14,1.5,14l0,0C0.7,14,0,13.3,0,12.5V13.5z M0,2.5c-0.6-0.6-0.5-1.6,0.1-2.1
		C0.5,0,1-0.1,1.5,0l0,0C2.3,0,3,0.7,3,1.5l0,0C3,2.3,2.3,3,1.5,3l0,0C0.7,3,0,2.3,0,1.5V2.5z"/>
</g>
<g id="Layer_2">
	<path class="st2" d="M0,309.6c0-0.8,0.7-1.5,1.5-1.5l0,0c0.8,0,1.5,0.7,1.5,1.5l0,0c0,0.8-0.7,1.5-1.5,1.5l0,0
		C0.7,311.1,0,310.4,0,309.6C0,309.6,0,309.6,0,309.6z"/>
	<path class="st2" d="M0,298.5c0-0.8,0.7-1.5,1.5-1.5l0,0c0.8,0,1.5,0.7,1.5,1.5l0,0c0,0.8-0.7,1.5-1.5,1.5l0,0
		C0.7,300.1,0,299.4,0,298.5C0,298.5,0,298.5,0,298.5z"/>
	<path class="st2" d="M0,287.5c0-0.8,0.7-1.5,1.5-1.5l0,0c0.8,0,1.5,0.7,1.5,1.5l0,0c0,0.8-0.7,1.5-1.5,1.5l0,0
		C0.7,289,0,288.4,0,287.5C0,287.5,0,287.5,0,287.5z"/>
	<path class="st2" d="M0,276.5c0-0.8,0.7-1.5,1.5-1.5l0,0c0.8,0,1.5,0.7,1.5,1.5l0,0c0,0.8-0.7,1.5-1.5,1.5l0,0
		C0.7,278,0,277.3,0,276.5C0,276.5,0,276.5,0,276.5z"/>
	<path class="st2" d="M0,265.4c0-0.8,0.7-1.5,1.5-1.5l0,0c0.8,0,1.5,0.7,1.5,1.5l0,0c0,0.8-0.7,1.5-1.5,1.5l0,0
		C0.7,267,0,266.3,0,265.4C0,265.4,0,265.4,0,265.4z"/>
	<path class="st2" d="M0,254.4c0-0.8,0.7-1.5,1.5-1.5l0,0c0.8,0,1.5,0.7,1.5,1.5l0,0c0,0.8-0.7,1.5-1.5,1.5l0,0
		C0.7,255.9,0,255.3,0,254.4C0,254.4,0,254.4,0,254.4z"/>
	<path class="st2" d="M0,243.4c0-0.8,0.7-1.5,1.5-1.5l0,0c0.8,0,1.5,0.7,1.5,1.5l0,0c0,0.8-0.7,1.5-1.5,1.5l0,0
		C0.7,244.9,0,244.2,0,243.4C0,243.4,0,243.4,0,243.4z"/>
	<path class="st2" d="M0,232.3c0-0.8,0.7-1.5,1.5-1.5l0,0c0.8,0,1.5,0.7,1.5,1.5l0,0c0,0.8-0.7,1.5-1.5,1.5l0,0
		C0.7,233.9,0,233.2,0,232.3C0,232.3,0,232.3,0,232.3z"/>
	<path class="st2" d="M0,221.7c0-0.8,0.7-1.5,1.5-1.5l0,0c0.8,0,1.5,0.7,1.5,1.5l0,0c0,0.8-0.7,1.5-1.5,1.5l0,0
		C0.7,223.2,0,222.6,0,221.7C0,221.7,0,221.7,0,221.7z"/>
	<path class="st2" d="M0,210.7c0-0.8,0.7-1.5,1.5-1.5l0,0c0.8,0,1.5,0.7,1.5,1.5l0,0c0,0.8-0.7,1.5-1.5,1.5l0,0
		C0.7,212.2,0,211.5,0,210.7C0,210.7,0,210.7,0,210.7z"/>
	<path class="st2" d="M0,199.6c0-0.8,0.7-1.5,1.5-1.5l0,0c0.8,0,1.5,0.7,1.5,1.5l0,0c0,0.8-0.7,1.5-1.5,1.5l0,0
		C0.7,201.2,0,200.5,0,199.6C0,199.7,0,199.7,0,199.6z"/>
	<path class="st2" d="M0,188.6c0-0.8,0.7-1.5,1.5-1.5l0,0c0.8,0,1.5,0.7,1.5,1.5l0,0c0,0.8-0.7,1.5-1.5,1.5l0,0
		C0.7,190.1,0,189.5,0,188.6C0,188.6,0,188.6,0,188.6z"/>
	<path class="st2" d="M0,177.6c0-0.8,0.7-1.5,1.5-1.5l0,0c0.8,0,1.5,0.7,1.5,1.5l0,0c0,0.8-0.7,1.5-1.5,1.5l0,0
		C0.7,179.1,0,178.4,0,177.6C0,177.6,0,177.6,0,177.6z"/>
	<path class="st2" d="M0,166.5c0-0.8,0.7-1.5,1.5-1.5l0,0c0.8,0,1.5,0.7,1.5,1.5l0,0c0,0.8-0.7,1.5-1.5,1.5l0,0
		C0.7,168.1,0,167.4,0,166.5C0,166.6,0,166.6,0,166.5z"/>
	<path class="st2" d="M0,155.5c0-0.8,0.7-1.5,1.5-1.5l0,0c0.8,0,1.5,0.7,1.5,1.5l0,0c0,0.8-0.7,1.5-1.5,1.5l0,0
		C0.7,157,0,156.4,0,155.5C0,155.5,0,155.5,0,155.5z"/>
	<path class="st2" d="M0,144.5c0-0.8,0.7-1.5,1.5-1.5l0,0c0.8,0,1.5,0.7,1.5,1.5l0,0c0,0.8-0.7,1.5-1.5,1.5l0,0
		C0.7,146,0,145.3,0,144.5C0,144.5,0,144.5,0,144.5z"/>
	<path class="st2" d="M0,133.4c0-0.8,0.7-1.5,1.5-1.5l0,0c0.8,0,1.5,0.7,1.5,1.5l0,0c0,0.8-0.7,1.5-1.5,1.5l0,0
		C0.7,135,0,134.3,0,133.4C0,133.5,0,133.5,0,133.4z"/>
	<path class="st2" d="M0,122.4c0-0.8,0.7-1.5,1.5-1.5l0,0c0.8,0,1.5,0.7,1.5,1.5l0,0c0,0.8-0.7,1.5-1.5,1.5l0,0
		C0.7,123.9,0,123.3,0,122.4C0,122.4,0,122.4,0,122.4z"/>
	<path class="st2" d="M0,111.4c0-0.8,0.7-1.5,1.5-1.5l0,0c0.8,0,1.5,0.7,1.5,1.5l0,0c0,0.8-0.7,1.5-1.5,1.5l0,0
		C0.7,112.9,0,112.2,0,111.4C0,111.4,0,111.4,0,111.4z"/>
	<path class="st2" d="M0,100.3c0-0.8,0.7-1.5,1.5-1.5l0,0c0.8,0,1.5,0.7,1.5,1.5l0,0c0,0.8-0.7,1.5-1.5,1.5l0,0
		C0.7,101.9,0,101.2,0,100.3C0,100.4,0,100.4,0,100.3z"/>
	<path class="st2" d="M0,89.3c0-0.8,0.7-1.5,1.5-1.5l0,0c0.8,0,1.5,0.7,1.5,1.5l0,0c0,0.8-0.7,1.5-1.5,1.5l0,0
		C0.7,90.8,0,90.2,0,89.3C0,89.3,0,89.3,0,89.3z"/>
	<path class="st2" d="M0,78.3c0-0.8,0.7-1.5,1.5-1.5l0,0c0.8,0,1.5,0.7,1.5,1.5l0,0c0,0.8-0.7,1.5-1.5,1.5l0,0
		C0.7,79.8,0,79.1,0,78.3C0,78.3,0,78.3,0,78.3z"/>
	<path class="st2" d="M0,67.3c0-0.8,0.7-1.5,1.5-1.5l0,0c0.8,0,1.5,0.7,1.5,1.5l0,0c0,0.8-0.7,1.5-1.5,1.5l0,0
		C0.7,68.8,0,68.1,0,67.3C0,67.3,0,67.3,0,67.3z"/>
	<path class="st2" d="M0,56.2c0-0.8,0.7-1.5,1.5-1.5l0,0c0.8,0,1.5,0.7,1.5,1.5l0,0c0,0.8-0.7,1.5-1.5,1.5l0,0
		C0.7,57.7,0,57.1,0,56.2C0,56.2,0,56.2,0,56.2z"/>
	<path class="st2" d="M0,45.6c0-0.8,0.7-1.5,1.5-1.5l0,0c0.8,0,1.5,0.7,1.5,1.5l0,0c0,0.8-0.7,1.5-1.5,1.5l0,0
		C0.7,47.1,0,46.5,0,45.6C0,45.6,0,45.6,0,45.6z"/>
	<path class="st2" d="M0,34.6c0-0.8,0.7-1.5,1.5-1.5l0,0c0.8,0,1.5,0.7,1.5,1.5l0,0c0,0.8-0.7,1.5-1.5,1.5l0,0
		C0.7,36.1,0,35.4,0,34.6C0,34.6,0,34.6,0,34.6z"/>
	<path class="st2" d="M0,23.5c0-0.8,0.7-1.5,1.5-1.5l0,0c0.8,0,1.5,0.7,1.5,1.5l0,0c0,0.8-0.7,1.5-1.5,1.5l0,0
		C0.7,25.1,0,24.4,0,23.5C0,23.6,0,23.5,0,23.5z"/>
	<path class="st2" d="M0,12.5C0,11.7,0.7,11,1.5,11l0,0C2.3,11,3,11.7,3,12.5l0,0C3,13.4,2.3,14,1.5,14l0,0C0.7,14,0,13.4,0,12.5
		C0,12.5,0,12.5,0,12.5z"/>
	<path class="st2" d="M0,1.5C0,0.7,0.7,0,1.5,0l0,0C2.3,0,3,0.7,3,1.5l0,0C3,2.3,2.3,3,1.5,3l0,0C0.7,3,0,2.3,0,1.5
		C0,1.5,0,1.5,0,1.5z"/>
</g>
</svg>
