<?xml version="1.0" encoding="utf-8"?>
<!-- Generator: Adobe Illustrator 21.1.0, SVG Export Plug-In . SVG Version: 6.00 Build 0)  -->
<svg version="1.1" id="Layer_1" xmlns="http://www.w3.org/2000/svg" xmlns:xlink="http://www.w3.org/1999/xlink" x="0px" y="0px"
	 viewBox="0 0 91.1 270.2" style="enable-background:new 0 0 91.1 270.2;" xml:space="preserve">
<style type="text/css">
	.st0{fill:#1A1A1A;}
</style>
<title>Asset 1</title>
<g>
	<polygon class="st0" points="91.1,25.1 66,0 56.1,0 91.1,35 	"/>
	<polygon class="st0" points="91.1,51.3 39.8,0 29.9,0 91.1,61.2 	"/>
	<polygon class="st0" points="3.8,0 91.1,87.3 91.1,77.4 13.7,0 	"/>
	<polygon class="st0" points="0,22.3 91.1,113.4 91.1,103.5 0,12.4 	"/>
	<polygon class="st0" points="0,48.5 91.1,139.6 91.1,129.7 0,38.6 	"/>
	<polygon class="st0" points="0,74.6 91.1,165.7 91.1,155.8 0,64.7 	"/>
	<polygon class="st0" points="0,100.8 91.1,191.8 91.1,181.9 0,90.8 	"/>
	<polygon class="st0" points="0,126.9 91.1,218 91.1,208.1 0,117 	"/>
	<polygon class="st0" points="0,153 91.1,244.1 91.1,234.2 0,143.1 	"/>
	<polygon class="st0" points="0,179.2 91.1,270.2 91.1,260.4 0,169.3 	"/>
</g>
</svg>
