<?xml version="1.0" encoding="utf-8"?>
<!-- Generator: Adobe Illustrator 23.0.0, SVG Export Plug-In . SVG Version: 6.00 Build 0)  -->
<svg version="1.1" id="Layer_1" xmlns="http://www.w3.org/2000/svg" xmlns:xlink="http://www.w3.org/1999/xlink" x="0px" y="0px"
	 viewBox="0 0 619.7 469.5" style="enable-background:new 0 0 619.7 469.5;" xml:space="preserve">
<style type="text/css">
	.st0{fill:#63BEE8;}
	.st1{fill:none;stroke:#EC008C;stroke-width:6.57;stroke-miterlimit:10;}
	.st2{fill:none;stroke:#9BBDAA;stroke-width:4.92;stroke-linecap:round;stroke-miterlimit:10;}
	.st3{fill:#FFFFFF;}
	.st4{fill:#63BEE8;stroke:#AEBEC4;stroke-width:6.57;stroke-miterlimit:10;}
	.st5{fill:#63BEE8;stroke:#9BBDAA;stroke-width:6.57;stroke-miterlimit:10;}
</style>
<title>logo-red</title>
<g>
	<g>
		<g>
			<path class="st0" d="M137.2,453.9v15.2h-5.5v-15.2H126v-5.1h17v5.1H137.2z"/>
			<path class="st0" d="M150.6,469.1v-20.3h15.8v4.9h-10.3v2.7h9.6v4.9h-9.6v2.9h10.3v4.9L150.6,469.1z"/>
			<path class="st0" d="M183.5,453.4c-1.5,0-2.6,0.4-2.6,1.3c0,1.1,2.1,1.3,4.1,1.7l0.6,0.1c4.2,0.8,6.3,2.8,6.3,5.9
				c0,5.1-4.3,7-8.6,7c-3.3,0.1-6.5-0.8-9.2-2.5l2.7-4.5c2,1.3,4.3,2.1,6.6,2.1c1.5,0,2.6-0.4,2.6-1.4s-1.3-1.3-3.8-1.7l-0.8-0.1
				c-4.7-0.8-6.6-2.8-6.5-6.4c0.1-3.9,3.4-6.5,8.2-6.5c3-0.1,6,0.7,8.6,2.1l-2.4,4.5C187.6,454.1,185.5,453.5,183.5,453.4z"/>
			<path class="st0" d="M209.9,453.9v15.2h-5.5v-15.2h-5.8v-5.1h17v5.1H209.9z"/>
			<path class="st0" d="M223.2,469.1v-20.3h15.8v4.9h-10.3v2.7h9.6v4.9h-9.6v2.9h10.3v4.9L223.2,469.1z"/>
			<path class="st0" d="M267,459c0,6.1-4.2,10.1-10.5,10.1h-9v-20.3h9C262.8,448.9,267,452.9,267,459z M253,464.1h3.3
				c3.3,0,4.9-2.2,4.9-5.1s-1.6-5.1-4.9-5.1H253V464.1z"/>
			<path class="st0" d="M292.2,461.8v7.4h-5.5v-20.3h15.7v4.9h-10.2v3.1h9.5v4.9L292.2,461.8z"/>
			<path class="st0" d="M331.1,459c0,6.1-4.5,10.5-10.7,10.5s-10.7-4.5-10.7-10.5s4.5-10.5,10.7-10.5S331.1,452.9,331.1,459z
				 M315.4,459c0.1,2.8,2.5,4.9,5.2,4.8s4.9-2.5,4.8-5.2c-0.1-2.7-2.3-4.8-5-4.8c-2.7-0.1-4.9,2.1-5,4.8
				C315.3,458.7,315.3,458.8,315.4,459z"/>
			<path class="st0" d="M355.9,455.6c0,3.1-1.8,5.4-5.2,6.1l5.5,7.4h-6.5l-4.9-7.2h-0.3v7.2H339v-20.3h9
				C353.2,448.9,355.9,451.5,355.9,455.6z M344.5,457.4h3.5c1.4,0,2.4-0.6,2.4-1.8s-1-1.8-2.4-1.8h-3.5L344.5,457.4z"/>
			<path class="st0" d="M382.1,469.1v-12.7l-3.3,10.8H373l-3.3-10.8v12.7h-5.5v-20.3h7.6l4.1,12.2l4.1-12.2h7.6v20.3L382.1,469.1z"
				/>
			<path class="st0" d="M405.1,469.5c-5.8,0-9-3.1-9-8.6v-12h5.5v11.9c0,1.9,1.5,3.5,3.5,3.5c1.9,0,3.5-1.5,3.5-3.5l0,0v-11.9h5.5
				v12C414.1,466.4,410.9,469.5,405.1,469.5z"/>
			<path class="st0" d="M422.7,469.1v-20.3h5.5v15.2h9.8v5.1L422.7,469.1z"/>
			<path class="st0" d="M460.2,469.1l-1.4-3.9h-7.6l-1.3,3.9h-5.8l7.7-20.3h6.5l7.7,20.3H460.2z M457.2,460.4l-2.1-6l-2.1,6H457.2z"
				/>
			<path class="st0" d="M482.2,453.4c-1.5,0-2.6,0.4-2.6,1.3c0,1.1,2.1,1.3,4.1,1.7l0.6,0.1c4.2,0.8,6.3,2.8,6.3,5.9
				c0,5.1-4.3,7-8.6,7c-3.3,0.1-6.5-0.8-9.2-2.5l2.7-4.5c2,1.3,4.3,2.1,6.6,2.1c1.5,0,2.6-0.4,2.6-1.4s-1.3-1.3-3.8-1.7l-0.8-0.1
				c-4.7-0.8-6.6-2.8-6.5-6.4c0.1-3.9,3.3-6.5,8.2-6.5c3-0.1,6,0.7,8.6,2.1l-2.4,4.5C486.3,454.1,484.3,453.5,482.2,453.4z"/>
		</g>
		<path class="st1" d="M480.6,305.1"/>
		<rect x="40.6" y="454.1" class="st0" width="61.7" height="9.3"/>
		<rect x="517.4" y="454.1" class="st0" width="61.7" height="9.3"/>
		<path class="st2" d="M495.7,403.4"/>
		<g>
			<path class="st3" d="M62.4,396.2c0,21.1-10.4,31.7-31.2,31.7S0,417.4,0,396.2V275.1c0-21.1,10.4-31.6,31.2-31.6
				c20.8,0,31.2,10.5,31.2,31.6V310c0,0.9-0.7,1.6-1.6,1.6H42.3c-0.9,0-1.6-0.7-1.6-1.6c0,0,0,0,0,0v-34.9c0-6.8-3.1-10.2-9.4-10.2
				h-0.1c-6.2,0-9.4,3.4-9.4,10.2v121.1c0,6.8,3.1,10.2,9.4,10.2s9.5-3.4,9.5-10.2v-34.8c0-0.9-0.7-1.6-1.6-1.6h-7.8
				c-0.9,0-1.6-0.7-1.6-1.6v-18.3c0-0.9,0.7-1.6,1.6-1.6h29.5c0.9,0,1.6,0.7,1.6,1.6V396.2z"/>
			<path class="st3" d="M86.3,275c0-0.9,0.7-1.6,1.6-1.6c0,0,0,0,0,0h30c19.3,0.1,28.9,10.6,28.9,31.7v22.6
				c0,12.7-5.2,21.2-15.7,25.6c-0.8,0.3-1.1,1.2-0.9,2l23.1,66.5c0.3,0.8-0.2,1.8-1,2.1c-0.2,0.1-0.3,0.1-0.5,0.1h-20.4
				c-0.7,0-1.3-0.5-1.6-1.2l-18.8-63.8c-0.2-0.8-1-1.3-1.8-1.1l0,0c-0.8,0.1-1.4,0.8-1.4,1.6v62.9c0,0.9-0.7,1.6-1.6,1.6H88
				c-0.9,0-1.6-0.7-1.6-1.6L86.3,275z M108.1,296.4v39.9c0,0.9,0.7,1.6,1.6,1.6h3.4c2.1,0.1,4.2-0.1,6.2-0.6
				c3.9-1.6,5.9-4.8,5.9-9.6v-22.6c0-6.9-3.1-10.3-9.4-10.3h-6.1C108.8,294.8,108.1,295.6,108.1,296.4L108.1,296.4L108.1,296.4z"/>
			<path class="st3" d="M232.9,394.8c0,21.1-10.4,31.7-31.2,31.7c-20.8,0-31.2-10.5-31.2-31.7v-92.1c0-21.1,10.4-31.6,31.2-31.6
				s31.2,10.5,31.2,31.6V394.8z M211.1,302.7c0-6.8-3.1-10.2-9.4-10.2h-0.1c-6.2,0-9.4,3.4-9.4,10.2v92.1c0,6.8,3.1,10.2,9.4,10.2
				c6.3,0,9.5-3.4,9.5-10.2L211.1,302.7z"/>
			<path class="st3" d="M341,377.4l13.6-102.6c0.1-0.8,0.8-1.4,1.6-1.4h18.7c0.9,0,1.6,0.7,1.6,1.6c0,0.1,0,0.1,0,0.2l-6.8,51.6
				l-15.1,95.8c-0.1,0.8-0.8,1.3-1.6,1.3h-27c-0.8,0-1.5-0.6-1.6-1.4l-9.5-65.4c-0.1-0.9-0.9-1.5-1.8-1.4c-0.7,0.1-1.3,0.7-1.4,1.4
				l-9.4,65.4c-0.1,0.8-0.8,1.4-1.6,1.4h-27c-0.8,0-1.5-0.6-1.6-1.4l-15.1-96l-6.8-51.5c-0.1-0.9,0.5-1.7,1.4-1.8c0.1,0,0.1,0,0.2,0
				h18.6c0.8,0,1.5,0.6,1.6,1.4l13.6,102.6c0.1,0.9,0.9,1.5,1.8,1.4c0.7-0.1,1.3-0.7,1.4-1.4l13.6-102.6c0.1-0.8,0.8-1.4,1.6-1.4
				h18.8c0.8,0,1.5,0.6,1.6,1.4l13.6,102.6c0.2,0.9,1,1.4,1.9,1.3C340.4,378.5,340.9,378,341,377.4z"/>
			<path class="st3" d="M396.9,273.4H450c0.9,0,1.6,0.7,1.6,1.6v18.2c0,0.9-0.7,1.6-1.6,1.6h-31.4c-0.9,0-1.6,0.7-1.6,1.6v39.9
				c0,0.9,0.7,1.6,1.6,1.6h26.6c0.9,0,1.6,0.7,1.6,1.6v18.3c0,0.9-0.7,1.6-1.6,1.6h-26.6c-0.9,0-1.6,0.7-1.6,1.6v40
				c0,0.9,0.7,1.6,1.6,1.6H450c0.9,0,1.6,0.7,1.6,1.6v18.2c0,0.9-0.7,1.6-1.6,1.6h-53.1c-0.9,0-1.6-0.7-1.6-1.6V275
				C395.3,274.1,396,273.4,396.9,273.4z"/>
			<path class="st3" d="M473.2,275c0-0.9,0.7-1.6,1.6-1.6h30c19.3,0.1,28.9,10.6,28.9,31.7v22.6c0,12.7-5.2,21.2-15.7,25.6
				c-0.8,0.3-1.1,1.2-0.9,2l23.2,66.5c0.3,0.8-0.2,1.8-1,2.1c-0.2,0.1-0.3,0.1-0.5,0.1h-20.3c-0.7,0-1.3-0.5-1.5-1.2l-18.8-63.7
				c-0.2-0.8-1-1.3-1.8-1.1l0,0c-0.8,0.1-1.4,0.8-1.4,1.6v62.9c0,0.9-0.7,1.6-1.6,1.6h-18.5c-0.9,0-1.6-0.7-1.6-1.6L473.2,275z
				 M495,296.4v39.9c0,0.9,0.7,1.6,1.6,1.6h3.4c2.1,0.1,4.2-0.1,6.2-0.6c3.9-1.6,5.9-4.8,5.9-9.6v-22.6c0-6.9-3.1-10.3-9.4-10.3
				h-6.1C495.7,294.8,495,295.6,495,296.4L495,296.4L495,296.4z"/>
			<path class="st3" d="M557.3,275.1c0-21.1,10.4-31.6,31.2-31.6c20.8,0,31.2,10.5,31.2,31.6v18.6c0,0.9-0.7,1.6-1.6,1.6h-18.5
				c-0.9,0-1.6-0.7-1.6-1.6v-18.6c0-6.8-3.1-10.2-9.4-10.2h-0.2c-6.2,0-9.4,3.4-9.4,10.2v25.3c0,6.7,6.8,14.9,20.3,24.6
				s20.3,21.3,20.3,34.8v36.4c0,21.1-10.4,31.7-31.2,31.7s-31.2-10.6-31.2-31.7v-18.7c0-0.9,0.7-1.6,1.6-1.6h18.5
				c0.9,0,1.6,0.7,1.6,1.6v18.7c0,6.8,3.2,10.2,9.5,10.2s9.5-3.4,9.4-10.2v-34.6c0-7.3-6.8-15.8-20.3-25.5
				c-13.6-9.7-20.3-21.5-20.3-35.3V275.1z"/>
		</g>
	</g>
	<path class="st0" d="M412.6,165l-7.1-6l44.3-52.4c7-7.7,28.5-31,60.6-8.3l4,2.8l-20.9,26.5l-7.3-5.8l14.7-18.7
		c-22.9-13.4-37.1,1.9-44.2,9.6L412.6,165z"/>
	<path class="st0" d="M464.5,206.7l-7-6.1l58.7-67.7c-22.8-13.2-36.9,2-44,9.7l-32.8,40.6l-7.2-5.8l33.1-40.9
		c7-7.7,28.5-31,60.6-8.3l4.2,3L464.5,206.7z"/>
	<path class="st0" d="M463,207.4l-85.9-61.5L415,101c7.1-7.7,25.9-28.2,54.7-12c2,1.1,4,2.4,5.8,3.7l-5.4,7.6
		c-1.6-1.1-3.3-2.2-5-3.2c-22.4-12.5-36.5,2.7-43.3,10.1l-31.2,37l77.7,55.7L463,207.4z"/>
	<path class="st0" d="M345,148.7l-6.9-6.2l27.3-30.5c6.2-6.8,22.6-24.6,47.2-15.5c2.3,0.9,4.6,1.9,6.8,3.1c0.8,0.5,1.7,1,2.6,1.5
		l-4.8,7.9c-0.7-0.4-1.5-0.9-2.2-1.2c-1.8-1-3.7-1.8-5.6-2.5c-18.8-6.9-31.2,6.6-37.2,13.1L345,148.7z"/>
	<path class="st0" d="M419.3,209.9L342,153.4c-16.5-13.8-47.7-13.8-64.2,0l-0.1,0.1l-72.6,56l-5.7-7.3l72.5-56
		c19.9-16.5,56-16.5,75.9,0l76.9,56.3L419.3,209.9z"/>
	<path class="st4" d="M290.7,228.3"/>
	<path class="st4" d="M327.7,160.6"/>
	<path class="st4" d="M251.6,160.6"/>
	<path class="st1" d="M349.1,103.7"/>
	<path class="st1" d="M317.8,125.6"/>
	<path class="st0" d="M472.1,243.5l-0.5-9.3c22.4-1.2,38-6.8,45.2-16.2c2.4-3.1,3.9-6.8,4.3-10.8h-83c-24.7,0-44.4,10.4-62.2,32.9
		l-7.3-5.8c19.7-24.8,41.8-36.4,69.5-36.4h91.2l0.8,3.7c1.1,7.8-1,15.8-6,22C515.1,235.5,497.6,242.1,472.1,243.5z"/>
	<path class="st0" d="M209.9,165l-44.1-52.2c-7.1-7.7-21.3-23-44.2-9.6l14.7,18.7l-7.3,5.8l-20.9-26.5l4-2.8
		c32.1-22.7,53.5,0.6,60.6,8.3l0.1,0.2L217,159L209.9,165z"/>
	<path class="st0" d="M158,206.7l-65.6-75.6l4.2-3c32.1-22.7,53.5,0.6,60.6,8.3l0.2,0.2l32.9,40.7l-7.2,5.8l-32.8-40.6
		c-7.1-7.7-21.2-22.9-44-9.7l58.7,67.8L158,206.7z"/>
	<path class="st0" d="M159.6,207.4l-5.4-7.5l77.7-55.7l-31.2-37c-6.8-7.4-20.9-22.6-43.3-10.1c-1.7,1-3.4,2-5,3.2l-5.4-7.6
		c1.9-1.3,3.8-2.6,5.8-3.7c28.8-16.2,47.7,4.3,54.7,12l0.1,0.2l37.8,44.8L159.6,207.4z"/>
	<path class="st0" d="M277.5,148.7l-27.3-30.5c-5.9-6.4-18.3-19.9-37.1-13c-1.9,0.7-3.8,1.6-5.6,2.5c-0.7,0.4-1.4,0.8-2.2,1.2
		l-4.8-7.9c0.9-0.5,1.7-1,2.6-1.5c2.2-1.2,4.5-2.2,6.8-3.1c24.6-9,41,8.8,47.2,15.5l27.3,30.5L277.5,148.7z"/>
	<path class="st0" d="M157.9,243.5c-25.5-1.4-43-8-52-19.8c-4.9-6.2-7.1-14.2-5.9-22l0.8-3.7h83.8c27.7,0,49.8,11.6,69.5,36.4
		l-7.3,5.8c-17.8-22.4-37.6-32.9-62.2-32.9h-75.6c0.4,4,1.9,7.8,4.4,10.9c7.3,9.3,22.8,14.8,45,16L157.9,243.5z"/>
	<g>
		<g>
			<path class="st3" d="M312.3,10.1c17.1,33.1,17.5,70.2,0.1,88.8C295.2,80.2,295,43.4,312.3,10.1z"/>
			<path class="st3" d="M312.4,105.6L309,102c-18.7-20.3-19-59-0.8-94.1l4.1-7.9l4.1,7.9c18.4,35.4,18.1,74.1-0.7,94.1L312.4,105.6z
				 M312.4,21c-11,26.3-11,54,0.1,70.4C323.5,75.2,323.4,47.5,312.4,21L312.4,21z"/>
		</g>
		<g>
			<path class="st3" d="M326.9,114c-0.1-16.3,16.9-33,36.7-36.7C364.8,94,343.9,115.2,326.9,114z"/>
			<path class="st3" d="M328.3,118.7c-0.6,0-1.1,0-1.7-0.1l-4.3-0.3v-4.3c-0.1-18.3,18.5-37.2,40.5-41.3l5.1-1l0.4,5.2
				c0.7,9.2-4.2,20-13,28.8C347,114,337.1,118.7,328.3,118.7z M358.3,83.5c-12.8,4.5-23.5,14.9-26.1,25.5c5.4-1.2,11.4-4.7,16.5-9.8
				C353.6,94.3,357,88.7,358.3,83.5z"/>
		</g>
		<g>
			<path class="st3" d="M297.6,114.4c-14,2.2-35.9-18-37.2-36.5C278.1,78.2,297.7,97.2,297.6,114.4z"/>
			<path class="st3" d="M295.4,119.2c-6.3,0-13.5-3-20.5-8.6c-8.6-6.9-18.1-19-19.1-32.4l-0.4-5.1l5.1,0.1
				c20.5,0.3,41.9,21.5,41.7,41.2v3.9l-3.9,0.6C297.4,119.1,296.4,119.2,295.4,119.2z M266.2,83.4c2.3,7.1,7.5,14.4,14.5,20
				c3.4,2.9,7.4,5,11.7,6.2C289.8,98.1,278.1,86.6,266.2,83.4z"/>
		</g>
	</g>
	<g>
		<circle class="st0" cx="312.3" cy="158.7" r="6"/>
		<circle class="st0" cx="312.3" cy="180.9" r="6"/>
		<circle class="st0" cx="312.3" cy="203" r="6"/>
		<circle class="st0" cx="312.3" cy="225.1" r="6"/>
		<circle class="st0" cx="312.3" cy="247.2" r="6"/>
		<g>
			<circle class="st0" cx="266.6" cy="180.9" r="6"/>
			<circle class="st0" cx="266.6" cy="203.1" r="6"/>
			<circle class="st0" cx="266.6" cy="225.2" r="6"/>
		</g>
		<g>
			<circle class="st0" cx="358" cy="180.9" r="6"/>
			<circle class="st0" cx="358" cy="203.1" r="6"/>
			<circle class="st0" cx="358" cy="225.2" r="6"/>
		</g>
		<g>
			<circle class="st0" cx="335.2" cy="170" r="6"/>
			<circle class="st0" cx="335.2" cy="192.2" r="6"/>
			<circle class="st0" cx="335.2" cy="214.3" r="6"/>
			<circle class="st0" cx="335.2" cy="236.4" r="6"/>
		</g>
		<circle class="st0" cx="243.8" cy="203.1" r="6"/>
		<circle class="st0" cx="381.1" cy="203.1" r="6"/>
		<g>
			<circle class="st0" cx="289.5" cy="170.1" r="6"/>
			<circle class="st0" cx="289.5" cy="192.3" r="6"/>
			<circle class="st0" cx="289.5" cy="214.4" r="6"/>
			<circle class="st0" cx="289.5" cy="236.5" r="6"/>
		</g>
	</g>
	<g>
		<g>
			
				<rect x="337.8" y="15.8" transform="matrix(0.2028 -0.9792 0.9792 0.2028 261.9561 362.7113)" class="st0" width="31.9" height="9.3"/>
			
				<rect x="378.4" y="27.4" transform="matrix(0.3849 -0.9229 0.9229 0.3849 212.9759 383.7522)" class="st0" width="31.9" height="9.3"/>
			
				<rect x="415.2" y="47.1" transform="matrix(0.5691 -0.8222 0.8222 0.5691 143.1921 376.799)" class="st0" width="31.9" height="9.3"/>
			<path class="st5" d="M183.7,102.1"/>
			<path class="st5" d="M347.2,52"/>
			<path class="st0" d="M413.7,85.3l-3.9-2.6c-19.2-12.9-40.8-21.8-63.5-26.2l-4.5-0.9l1.8-9.1l4.5,0.9C372,52.1,394.7,61.5,415,75
				l3.9,2.6L413.7,85.3z"/>
			<path class="st5" d="M440.9,102.3"/>
		</g>
		<g>
			
				<rect x="266.4" y="4.5" transform="matrix(0.9792 -0.2028 0.2028 0.9792 1.4842 55.3851)" class="st0" width="9.3" height="31.9"/>
			
				<rect x="225.7" y="16.1" transform="matrix(0.9229 -0.3849 0.3849 0.9229 5.4107 91.1378)" class="st0" width="9.3" height="31.9"/>
			<rect x="189" y="35.8" transform="matrix(0.8223 -0.569 0.569 0.8223 4.9576 119.3597)" class="st0" width="9.3" height="31.9"/>
			<path class="st5" d="M277.5,52"/>
			<path class="st0" d="M211,85.3l-5.1-7.7l3.9-2.6c20.3-13.5,43-22.9,66.9-27.6l4.5-0.9l1.8,9.1l-4.5,0.9
				c-22.7,4.4-44.3,13.4-63.5,26.2L211,85.3z"/>
		</g>
	</g>
</g>
</svg>
