<svg xmlns="http://www.w3.org/2000/svg" width="619.74" height="469.52" viewBox="0 0 619.74 469.52">
  <defs>
    <style>
      .a {
        fill: #e70;
      }

      .b, .c, .e, .f {
        fill: none;
        stroke-miterlimit: 10;
      }

      .b {
        stroke: #ec008c;
      }

      .b, .e, .f {
        stroke-width: 6.57px;
      }

      .c, .f {
        stroke: #9bbdaa;
      }

      .c {
        stroke-linecap: round;
        stroke-width: 4.92px;
      }

      .d {
        fill: #fff;
      }

      .e {
        stroke: #aebec4;
      }
    </style>
  </defs>
  <title>logo-orange</title>
  <g>
    <g>
      <g>
        <path class="a" d="M137.25,453.93v15.21h-5.5V453.93H126v-5.07h17v5.07Z"/>
        <path class="a" d="M150.56,469.14V448.86H166.4v4.9H156.06v2.68h9.62v4.89h-9.62v2.91H166.4v4.9Z"/>
        <path class="a" d="M183.49,453.44c-1.46,0-2.61.41-2.61,1.32,0,1.13,2.07,1.29,4.14,1.66l.65.13c4.21.81,6.31,2.81,6.31,5.94,0,5.14-4.33,7-8.65,7a16,16,0,0,1-9.25-2.52l2.69-4.49a12,12,0,0,0,6.63,2.09c1.46,0,2.56-.41,2.56-1.41s-1.27-1.26-3.78-1.68l-.77-.13c-4.66-.81-6.62-2.79-6.5-6.4.12-3.88,3.35-6.47,8.23-6.47a16.43,16.43,0,0,1,8.56,2.13l-2.38,4.5A12.05,12.05,0,0,0,183.49,453.44Z"/>
        <path class="a" d="M209.93,453.93v15.21h-5.5V453.93h-5.76v-5.07h17v5.07Z"/>
        <path class="a" d="M223.24,469.14V448.86h15.84v4.9H228.74v2.68h9.62v4.89h-9.62v2.91h10.34v4.9Z"/>
        <path class="a" d="M267,459c0,6.11-4.19,10.14-10.51,10.14h-9V448.86h9C262.77,448.86,267,452.89,267,459Zm-14,5.08h3.3c3.32,0,4.94-2.16,4.94-5.08s-1.62-5.08-4.94-5.08H253Z"/>
        <path class="a" d="M292.18,461.77v7.37h-5.5V448.86h15.7v4.9h-10.2v3.11h9.47v4.9Z"/>
        <path class="a" d="M331.06,459c0,6.07-4.45,10.51-10.72,10.51s-10.72-4.45-10.72-10.51,4.45-10.51,10.72-10.51S331.06,452.93,331.06,459Zm-15.71,0a5,5,0,1,0,5-5.24A4.9,4.9,0,0,0,315.35,459Z"/>
        <path class="a" d="M355.94,455.61c0,3.13-1.81,5.39-5.24,6.08l5.52,7.44h-6.49l-4.88-7.2h-.3v7.2H339V448.86h9C353.23,448.86,355.94,451.52,355.94,455.61Zm-11.4,1.8H348c1.35,0,2.36-.56,2.36-1.8s-1-1.81-2.36-1.81h-3.48Z"/>
        <path class="a" d="M382.08,469.14V456.45l-3.26,10.8H373l-3.26-10.8v12.69h-5.5V448.86h7.63l4.07,12.19,4.06-12.19h7.63v20.28Z"/>
        <path class="a" d="M405.12,469.52c-5.82,0-9-3.13-9-8.65v-12h5.52v11.85a3.46,3.46,0,1,0,6.92,0V448.86h5.52v12C414.1,466.39,410.94,469.52,405.12,469.52Z"/>
        <path class="a" d="M422.66,469.14V448.86h5.5v15.21h9.76v5.07Z"/>
        <path class="a" d="M460.24,469.14l-1.35-3.87h-7.57L450,469.14h-5.75l7.67-20.28h6.49l7.68,20.28Zm-3.06-8.78-2.07-6-2.09,6Z"/>
        <path class="a" d="M482.22,453.44c-1.46,0-2.61.41-2.61,1.32,0,1.13,2.07,1.29,4.14,1.66l.65.13c4.22.81,6.31,2.81,6.31,5.94,0,5.14-4.33,7-8.65,7a16,16,0,0,1-9.25-2.52l2.69-4.49a12,12,0,0,0,6.63,2.09c1.46,0,2.56-.41,2.56-1.41s-1.27-1.26-3.78-1.68l-.77-.13c-4.66-.81-6.62-2.79-6.5-6.4.12-3.88,3.34-6.47,8.23-6.47a16.42,16.42,0,0,1,8.56,2.13l-2.38,4.5A12,12,0,0,0,482.22,453.44Z"/>
      </g>
      <path class="b" d="M480.6,305.07"/>
      <rect class="a" x="40.6" y="454.07" width="61.71" height="9.27"/>
      <rect class="a" x="517.43" y="454.07" width="61.71" height="9.27"/>
      <path class="c" d="M495.66,403.41"/>
      <g>
        <path class="d" d="M62.41,396.2q0,31.63-31.24,31.7T0,396.2V275.08q0-31.63,31.17-31.63t31.24,31.63V310a1.61,1.61,0,0,1-1.61,1.61H42.3A1.61,1.61,0,0,1,40.68,310V275.08q0-10.13-9.44-10.21h-.15q-9.37,0-9.37,10.21V396.2q0,10.21,9.44,10.21t9.52-10.21V361.36a1.61,1.61,0,0,0-1.61-1.61H31.32a1.61,1.61,0,0,1-1.61-1.61V339.87a1.61,1.61,0,0,1,1.61-1.61H60.8a1.61,1.61,0,0,1,1.61,1.61Z"/>
        <path class="d" d="M86.34,275A1.61,1.61,0,0,1,88,273.42h30q28.94.08,28.94,31.71v22.65q0,19.06-15.72,25.63a1.62,1.62,0,0,0-.88,2l23.15,66.46a1.61,1.61,0,0,1-1.52,2.14H131.61a1.61,1.61,0,0,1-1.55-1.16l-18.84-63.76a1.61,1.61,0,0,0-1.77-1.14h0a1.61,1.61,0,0,0-1.39,1.6v62.85a1.61,1.61,0,0,1-1.61,1.61H88a1.61,1.61,0,0,1-1.61-1.61Zm21.72,21.42v39.92a1.61,1.61,0,0,0,1.61,1.61h3.38a20.93,20.93,0,0,0,6.22-.61q5.91-2.38,5.91-9.6V305.13q0-10.29-9.44-10.29h-6.07A1.61,1.61,0,0,0,108.06,296.45Z"/>
        <path class="d" d="M232.86,394.79q0,31.63-31.25,31.7t-31.17-31.7V302.67q0-31.63,31.17-31.63t31.25,31.63Zm-21.73-92.12q0-10.13-9.44-10.21h-.15q-9.37,0-9.37,10.21v92.12q0,10.21,9.44,10.21t9.52-10.21Z"/>
        <path class="d" d="M341,377.41l13.57-102.59a1.61,1.61,0,0,1,1.6-1.4h18.7a1.61,1.61,0,0,1,1.6,1.82l-6.82,51.61-15.06,95.82A1.61,1.61,0,0,1,353,424H326a1.61,1.61,0,0,1-1.6-1.38l-9.48-65.35a1.61,1.61,0,0,0-3.19,0l-9.42,65.35a1.61,1.61,0,0,1-1.6,1.38h-27a1.61,1.61,0,0,1-1.59-1.36l-15.14-96-6.82-51.45a1.61,1.61,0,0,1,1.6-1.82h18.63a1.61,1.61,0,0,1,1.6,1.4l13.57,102.59a1.61,1.61,0,0,0,3.2,0l13.57-102.59a1.61,1.61,0,0,1,1.6-1.4h18.75a1.61,1.61,0,0,1,1.6,1.4l13.57,102.59A1.61,1.61,0,0,0,341,377.41Z"/>
        <path class="d" d="M396.86,273.42H450A1.61,1.61,0,0,1,451.6,275v18.2a1.61,1.61,0,0,1-1.61,1.61h-31.4a1.61,1.61,0,0,0-1.61,1.61v39.92a1.61,1.61,0,0,0,1.61,1.61h26.56a1.61,1.61,0,0,1,1.61,1.61v18.27a1.61,1.61,0,0,1-1.61,1.61H418.59a1.61,1.61,0,0,0-1.61,1.61V401a1.61,1.61,0,0,0,1.61,1.61H450a1.61,1.61,0,0,1,1.61,1.61v18.19A1.61,1.61,0,0,1,450,424H396.86a1.61,1.61,0,0,1-1.61-1.61V275A1.61,1.61,0,0,1,396.86,273.42Z"/>
        <path class="d" d="M473.22,275a1.61,1.61,0,0,1,1.61-1.61h30q28.94.08,28.94,31.71v22.65q0,19.06-15.72,25.63a1.62,1.62,0,0,0-.88,2l23.15,66.46a1.61,1.61,0,0,1-1.52,2.14H518.49a1.61,1.61,0,0,1-1.55-1.16L498.1,359.12a1.61,1.61,0,0,0-1.77-1.14h0a1.61,1.61,0,0,0-1.39,1.6v62.85a1.61,1.61,0,0,1-1.61,1.61h-18.5a1.61,1.61,0,0,1-1.61-1.61Zm21.73,21.42v39.92a1.61,1.61,0,0,0,1.61,1.61h3.38a20.91,20.91,0,0,0,6.22-.61q5.91-2.38,5.91-9.6V305.13q0-10.29-9.44-10.29h-6.07A1.61,1.61,0,0,0,494.95,296.45Z"/>
        <path class="d" d="M557.33,275.08q0-31.63,31.17-31.63t31.24,31.63v18.65a1.61,1.61,0,0,1-1.61,1.61h-18.5a1.61,1.61,0,0,1-1.61-1.61V275.08q0-10.13-9.44-10.21h-.15q-9.37,0-9.37,10.21v25.27q0,10.06,20.34,24.64t20.34,34.78V396.2q0,31.71-31.17,31.7t-31.24-31.7V377.55a1.61,1.61,0,0,1,1.61-1.61h18.5a1.61,1.61,0,0,1,1.61,1.61V396.2q0,10.21,9.52,10.21T598,396.2V361.6q0-10.9-20.34-25.49T557.33,300.8Z"/>
      </g>
    </g>
    <path class="a" d="M412.63,165l-7.09-6,44.27-52.43c7-7.66,28.49-31,60.58-8.29l4,2.82-20.93,26.49-7.28-5.75,14.74-18.66c-22.92-13.43-37.15,1.9-44.22,9.59Z"/>
    <path class="a" d="M464.55,206.7l-7-6.07,58.71-67.74c-22.76-13.2-36.91,2-44,9.67l-32.8,40.57-7.21-5.83,33.09-40.91c7-7.66,28.48-31,60.58-8.29l4.18,3Z"/>
    <path class="a" d="M463,207.43l-85.87-61.52L415,101c7.09-7.7,25.9-28.16,54.74-12a66.59,66.59,0,0,1,5.84,3.7l-5.35,7.57a57.29,57.29,0,0,0-5-3.18c-22.36-12.54-36.49,2.69-43.31,10.11l-31.24,37,77.71,55.68Z"/>
    <path class="a" d="M345,148.71l-6.91-6.18,27.26-30.46c6.21-6.75,22.6-24.58,47.23-15.54a51.85,51.85,0,0,1,6.81,3.1q1.27.69,2.57,1.47L417.15,109q-1.1-.67-2.18-1.25a42.4,42.4,0,0,0-5.59-2.54c-18.81-6.9-31.21,6.59-37.17,13.07Z"/>
    <path class="a" d="M419.28,209.94,342,153.36c-16.49-13.78-47.7-13.79-64.21,0l-.14.11-72.57,56-5.67-7.34,72.5-56c19.9-16.53,56-16.53,75.91,0l76.9,56.31Z"/>
    <path class="e" d="M290.68,228.33"/>
    <path class="e" d="M327.72,160.61"/>
    <path class="e" d="M251.6,160.61"/>
    <path class="b" d="M349.08,103.72"/>
    <path class="b" d="M317.84,125.57"/>
    <path class="a" d="M472.13,243.53l-.5-9.26c22.35-1.21,38-6.81,45.19-16.19a20.66,20.66,0,0,0,4.3-10.75h-83c-24.67,0-44.44,10.45-62.22,32.89l-7.27-5.76c19.68-24.83,41.76-36.4,69.49-36.4h91.23l.77,3.68a28.66,28.66,0,0,1-5.95,22C515.13,235.48,497.63,242.15,472.13,243.53Z"/>
    <path class="a" d="M209.91,165l-44.08-52.2c-7.07-7.68-21.29-23-44.21-9.59l14.74,18.66-7.28,5.75-20.93-26.49,4-2.82c32.09-22.67,53.53.63,60.58,8.29l.13.15L217,159Z"/>
    <path class="a" d="M158,206.7,92.43,131.05l4.18-3c32.09-22.68,53.53.63,60.58,8.29l.19.22,32.89,40.69-7.21,5.83-32.8-40.57c-7.06-7.67-21.2-22.87-44-9.67L165,200.63Z"/>
    <path class="a" d="M159.57,207.43l-5.4-7.54,77.7-55.67-31.24-37c-6.82-7.41-20.95-22.64-43.31-10.1a57.41,57.41,0,0,0-5,3.19l-5.35-7.57a66.77,66.77,0,0,1,5.84-3.7c28.84-16.17,47.66,4.29,54.74,12l.13.15,37.77,44.78Z"/>
    <path class="a" d="M277.54,148.71l-27.26-30.46c-5.92-6.43-18.33-19.92-37.13-13a42.55,42.55,0,0,0-5.58,2.54q-1.07.58-2.18,1.25l-4.81-7.93q1.3-.79,2.57-1.47a51.82,51.82,0,0,1,6.81-3.1c24.63-9,41,8.79,47.19,15.49l27.3,30.51Z"/>
    <path class="a" d="M157.86,243.53c-25.5-1.38-43-8-52-19.8a28.67,28.67,0,0,1-5.95-22l.77-3.68h83.79c27.73,0,49.81,11.57,69.49,36.4l-7.27,5.76c-17.78-22.44-37.55-32.89-62.22-32.89H108.87a20.63,20.63,0,0,0,4.45,10.94c7.27,9.27,22.84,14.8,45,16Z"/>
    <g>
      <g>
        <path class="d" d="M312.33,10.05c17.15,33.07,17.55,70.19.07,88.79C295.19,80.19,295,43.4,312.33,10.05Z"/>
        <path class="d" d="M312.37,105.64,309,102c-18.74-20.3-19.05-59-.77-94.07L312.34,0l4.11,7.92c18.38,35.43,18.1,74.13-.67,94.1Zm0-84.67c-11,26.33-11,54,.1,70.43C323.51,75.16,323.43,47.52,312.33,21Z"/>
      </g>
      <g>
        <path class="d" d="M326.92,114c-.06-16.26,16.91-33,36.67-36.73C364.79,94,343.88,115.24,326.92,114Z"/>
        <path class="d" d="M328.26,118.72q-.84,0-1.66-.06l-4.3-.3,0-4.31c-.07-18.28,18.46-37.19,40.45-41.31l5.1-1,.38,5.18c.67,9.21-4.18,20-13,28.76C347,114,337.08,118.72,328.26,118.72ZM358.33,83.5C345.49,88,334.82,98.38,332.18,109c5.41-1.19,11.38-4.68,16.51-9.82C353.57,94.3,357,88.67,358.33,83.5Z"/>
      </g>
      <g>
        <path class="d" d="M297.58,114.37c-14.05,2.15-35.85-18-37.18-36.48C278.11,78.18,297.74,97.23,297.58,114.37Z"/>
        <path class="d" d="M295.41,119.17c-6.34,0-13.51-3-20.53-8.57-8.6-6.86-18.14-19-19.11-32.37l-.37-5.05,5.07.08c20.48.33,41.93,21.49,41.74,41.16l0,3.94-3.9.6A19,19,0,0,1,295.41,119.17ZM266.19,83.38c2.27,7.06,7.54,14.44,14.47,20a30.81,30.81,0,0,0,11.73,6.18C289.77,98.13,278.12,86.56,266.19,83.38Z"/>
      </g>
    </g>
    <g>
      <circle class="a" cx="312.31" cy="158.74" r="5.98"/>
      <circle class="a" cx="312.31" cy="180.86" r="5.98"/>
      <circle class="a" cx="312.31" cy="202.99" r="5.98"/>
      <circle class="a" cx="312.31" cy="225.12" r="5.98"/>
      <circle class="a" cx="312.31" cy="247.24" r="5.98"/>
      <g>
        <circle class="a" cx="266.6" cy="180.93" r="5.98"/>
        <circle class="a" cx="266.6" cy="203.06" r="5.98"/>
        <circle class="a" cx="266.6" cy="225.18" r="5.98"/>
      </g>
      <g>
        <circle class="a" cx="357.96" cy="180.93" r="5.98"/>
        <circle class="a" cx="357.96" cy="203.06" r="5.98"/>
        <circle class="a" cx="357.96" cy="225.18" r="5.98"/>
      </g>
      <g>
        <circle class="a" cx="335.17" cy="170.03" r="5.98"/>
        <circle class="a" cx="335.17" cy="192.16" r="5.98"/>
        <circle class="a" cx="335.17" cy="214.29" r="5.98"/>
        <circle class="a" cx="335.17" cy="236.41" r="5.98"/>
      </g>
      <circle class="a" cx="243.75" cy="203.11" r="5.98"/>
      <circle class="a" cx="381.1" cy="203.11" r="5.98"/>
      <g>
        <circle class="a" cx="289.46" cy="170.15" r="5.98"/>
        <circle class="a" cx="289.46" cy="192.28" r="5.98"/>
        <circle class="a" cx="289.46" cy="214.4" r="5.98"/>
        <circle class="a" cx="289.46" cy="236.53" r="5.98"/>
      </g>
    </g>
    <g>
      <g>
        <rect class="a" x="337.75" y="15.83" width="31.93" height="9.27" transform="translate(261.97 362.69) rotate(-78.3)"/>
        <rect class="a" x="378.43" y="27.44" width="31.93" height="9.27" transform="translate(212.99 383.74) rotate(-67.36)"/>
        <rect class="a" x="415.15" y="47.11" width="31.93" height="9.27" transform="translate(143.22 376.8) rotate(-55.31)"/>
        <path class="f" d="M183.73,102.11"/>
        <path class="f" d="M347.2,52"/>
        <path class="a" d="M413.7,85.28l-3.86-2.57A174.81,174.81,0,0,0,346.3,56.5l-4.55-.89,1.79-9.1,4.55.89A184.06,184.06,0,0,1,415,75l3.86,2.57Z"/>
        <path class="f" d="M440.86,102.27"/>
      </g>
      <g>
        <rect class="a" x="266.39" y="4.5" width="9.27" height="31.93" transform="translate(1.48 55.37) rotate(-11.7)"/>
        <rect class="a" x="225.71" y="16.11" width="9.27" height="31.93" transform="translate(5.4 91.12) rotate(-22.64)"/>
        <rect class="a" x="188.99" y="35.78" width="9.27" height="31.93" transform="translate(4.95 119.36) rotate(-34.68)"/>
        <path class="f" d="M277.55,52"/>
        <path class="a" d="M211,85.28l-5.14-7.72L209.76,75A184.06,184.06,0,0,1,276.65,47.4l4.55-.89,1.79,9.1-4.55.89A174.84,174.84,0,0,0,214.9,82.71Z"/>
      </g>
    </g>
  </g>
</svg>
