<svg xmlns="http://www.w3.org/2000/svg" width="109.7" height="109.7" viewBox="0 0 109.7 109.7">
  <title>icon-colorado-made</title>
  <g>
    <path d="M0,54.8a54.85,54.85,0,1,1,54.4,54.9A54.84,54.84,0,0,1,0,54.8ZM54.9,16.9A37.85,37.85,0,1,0,92.7,54.8,37.94,37.94,0,0,0,54.9,16.9ZM50.4,9.3A4.46,4.46,0,0,0,46,4.8a4.4,4.4,0,0,0,0,8.8A4.17,4.17,0,0,0,50.4,9.3ZM16.2,23.6a4.53,4.53,0,0,0,4.4,4.5,4.45,4.45,0,1,0,0-8.9A4.37,4.37,0,0,0,16.2,23.6ZM97.3,40.8a4.51,4.51,0,0,0,4.5-4.3,4.45,4.45,0,1,0-4.5,4.3ZM92.6,22.7a4.39,4.39,0,0,0-.9-2.7c-.7-.8-1.5-1.6-2.2-2.4-.2-.2-.3-.2-.5,0l-.9.9c-1.6,1.5-3.1,3-4.7,4.5-.4.4-.4.4,0,.7.7.7,1.3,1.5,2,2.1a4.11,4.11,0,0,0,4.6.8A4.18,4.18,0,0,0,92.6,22.7ZM65.6,7.5a2.77,2.77,0,0,0-2.2-2.7c-1.1-.2-2.3-.4-3.4-.5-.4-.1-.5,0-.6.4l-.9,6a8.75,8.75,0,0,0-.2,1.6c0,.2,0,.4.2.4a6.75,6.75,0,0,0,1.4.2c.2,0,.3-.1.3-.2s.1-.4.1-.6c.1-.7.2-1.5.3-2.2,0-.1,0-.2.2-.3a.62.62,0,0,1,.8.5l.9,2.7a.63.63,0,0,0,.6.5c.4,0,.7.1,1.1.1s.6,0,.4-.5l-.9-2.7c-.1-.4-.1-.4.3-.6A2,2,0,0,0,65.6,7.5ZM38,98.4h0c-.1.7-.3,1.4-.4,2.1-.1.4-.4.8-.2,1.1s.7.4,1,.5h.1c.2.1.3,0,.3-.1s.1-.2.1-.3c.5-2.1,1-4.2,1.6-6.3,0-.2.1-.3-.1-.5a.44.44,0,0,0-.5.1l-.3.3c-1,.8-2.1,1.6-3.1,2.4a.52.52,0,0,1-.4.2c-.1-1.4-.2-2.8-.3-4.1,0-.3-.1-.6-.1-.8a.21.21,0,0,0-.2-.2.37.37,0,0,0-.3.1c-.1.1-.1.2-.2.3-1.1,1.8-2.3,3.5-3.4,5.3-.1.1-.1.2-.2.3s-.1.3.1.4l.6.3c.6.3.6.3.9-.3s.8-1.3,1.2-2c.1-.1.1-.3.3-.2.1,1.1.2,2.1.2,3.2,0,.2-.1.5.2.6s.4-.1.6-.3C36.4,99.8,37.2,99.1,38,98.4ZM12.4,40.7a4.39,4.39,0,0,0,4.3-3.3,4.48,4.48,0,0,0,0-2.3c-.1-.5-.2-.6-.7-.4-.2.1-.5.2-.7.3-.4.1-.5.1-.4.7a2.39,2.39,0,0,1-3.1,2.8,2.47,2.47,0,0,1-1.7-3,2.59,2.59,0,0,1,1.1-1.4c.3-.2.3-.2.2-.6a3,3,0,0,0-.4-.8c-.2-.5-.2-.5-.7-.2-.1,0-.1.1-.2.1a4.66,4.66,0,0,0-2,5A4.67,4.67,0,0,0,12.4,40.7ZM78.1,14.4h0c.1-1.4.1-2.7.2-4.1,0-.2.1-.5-.2-.7a.56.56,0,0,0-.6.2l-6.6,5.1-.2.2c-.2.2-.2.3.1.4s.7.4,1.1.6a.47.47,0,0,0,.6-.1,2.18,2.18,0,0,0,.5-.4.47.47,0,0,1,.6-.1l1.8.9a2,2,0,0,1,.8.4c.2.2,0,.6,0,.9V18c0,.1.1.2.2.3.4.2.8.4,1.3.6.2.1.3,0,.4-.2v-.4A25.32,25.32,0,0,1,78.1,14.4ZM61.8,96.9c-.9.1-1.9.3-2.9.4-.3.1-.3.3-.2.5.3,2.1.7,4.2,1,6.3.1.4.1.4.5.4a20.05,20.05,0,0,0,2.4-.4,3.74,3.74,0,0,0,2.9-3.8A3.79,3.79,0,0,0,61.8,96.9Zm10.7-1.6a3.55,3.55,0,0,1,.9-.4c.5-.2,1-.5,1.5-.7a.37.37,0,0,0,.2-.5l-.3-.6c-.2-.5-.2-.5-.7-.3-1.1.5-2.3,1-3.4,1.5-.4.2-.4.2-.2.6.5,1.1,1,2.1,1.4,3.2.4.9.8,1.8,1.2,2.6.2.4.2.4.5.2a11.73,11.73,0,0,0,1.1-.5c.8-.4,1.6-.7,2.4-1.1.3-.2.4-.2.2-.6A4.87,4.87,0,0,1,77,98c-.2-.3-.2-.3-.5-.2-.6.3-1.2.5-1.8.8s-.7.3-1-.4-.3-.5.3-.8c.4-.2.9-.4,1.3-.6s.4-.2.2-.6l-.3-.6c-.2-.4-.2-.4-.5-.2s-.3.1-.5.2a10.08,10.08,0,0,0-1.5.7A1.36,1.36,0,0,0,72.5,95.3Zm-20.6,9.4c.6,0,.6,0,.4-.6-.7-2.2-1.5-4.4-2.2-6.7,0-.1-.1-.2-.1-.3s-.3-.2-.5-.1-.1.1-.1.2c-1.3,2-2.5,4.1-3.8,6.1-.3.4-.2.5.3.5h.2c.9.1.9.1,1.4-.6a.46.46,0,0,1,.5-.3l2.2.3c.2,0,.3.1.4.3.3.8.3.8,1.2.9C51.8,104.7,51.8,104.7,51.9,104.7ZM36.8,16.6c0-.1-.1-.1-.1-.2a5.58,5.58,0,0,0-.5-.8c-.2-.4-.3-.4-.7-.2-.7.4-1.3.7-2,1.1-.2.1-.4.2-.5-.1a7.45,7.45,0,0,0-.7-1.2c-.8-1.3-1.5-2.7-2.3-4-.2-.4-.3-.4-.7-.2s-.6.3-.9.5-.4.3-.2.7c1.2,2.2,2.5,4.5,3.7,6.7.2.4.3.4.7.2.7-.4,1.5-.8,2.2-1.2.5-.3,1-.5,1.5-.8S36.8,16.8,36.8,16.6Z"/>
    <path d="M54.8,73.4H27a3.08,3.08,0,0,1-1-.1,1.87,1.87,0,0,1-1.6-2.6,5.36,5.36,0,0,1,.5-1.1C28,64.3,31,59,34.1,53.7c6.2-10.7,12.3-21.4,18.5-32,.2-.3.4-.7.6-1a1.91,1.91,0,0,1,3.2,0l.6.9c7.2,12.5,14.4,25,21.7,37.5,2,3.5,4.1,7.1,6.1,10.6a6.11,6.11,0,0,1,.5,1.2,1.77,1.77,0,0,1-1.2,2.2,5.85,5.85,0,0,1-1.3.2H73.9C67.6,73.4,61.2,73.4,54.8,73.4Zm8.1-6.2A8.35,8.35,0,1,0,54.5,59,8.41,8.41,0,0,0,62.9,67.2Zm2.7-24.4a.84.84,0,0,0-.2-.6c-3.3-5.7-6.6-11.5-9.9-17.2-.4-.6-.8-.8-1.2,0-.7,1.4-1.6,2.7-2.3,4.1-2.1,3.6-4.1,7.2-6.2,10.7-.1.2-.3.3-.1.5s.4,0,.5-.1c1-.5,2-1,3-1.6s1.1-.4,1.5.5c.7,1.5,1.3,2.9,2,4.4.1.1.1.3.2.4a.38.38,0,0,0,.7,0,2.19,2.19,0,0,0,.3-.5c1.2-1.9,2.4-3.9,3.6-5.8.5-.9.8-.9,1.6-.2,1.9,1.6,3.8,3.3,5.7,4.9A3.5,3.5,0,0,1,65.6,42.8ZM46.4,67.2a8.14,8.14,0,0,0,6.2-2.4,2.65,2.65,0,0,0,.5-.6c.1-.2.1-.3-.1-.4s-.2-.1-.3-.2c-.9-.5-1.7-1-2.6-1.5a.64.64,0,0,0-.9.1,3.8,3.8,0,0,1-3.4.7,4.25,4.25,0,0,1,1.8-8.3,4.35,4.35,0,0,1,1.9,1c.2.2.3.3.6.1l3-1.8c.2-.1.2-.3.1-.5s-.1-.2-.2-.2a8.14,8.14,0,0,0-7.2-2.8,8.35,8.35,0,0,0-7.4,9.3C39,64,42.6,67.2,46.4,67.2Z"/>
    <path d="M45.1,81.5V80.3c0-.2-.1-.4-.3-.3s-.3-.2-.3-.4.1-.3.4-.3h1.4c.2,0,.3,0,.3.3s.1.5-.3.4-.4.1-.3.4v2a1.06,1.06,0,0,0,1.6,1,.87.87,0,0,0,.6-.8V80.1c0-.2-.1-.2-.3-.2s-.3-.1-.3-.5.2-.3.4-.3h1.4a.27.27,0,0,1,.3.3c0,.2,0,.5-.3.4s-.3.1-.3.3v2.1A1.67,1.67,0,0,1,47.7,84a3.3,3.3,0,0,1-1.4,0,1.52,1.52,0,0,1-1.2-1.6,2.55,2.55,0,0,0,0-.9Z"/>
    <path d="M62,83.5c.1.1.4,0,.4.3s0,.6-.5.6H60.8c-.2,0-.4,0-.4-.3s-.1-.5.3-.5.3-.2.4-.4c.4-1.2.8-2.3,1.2-3.5.1-.1.1-.3.2-.4a1.1,1.1,0,0,1,.8,0c.2,0,.2.2.2.3.4,1.1.8,2.3,1.2,3.4.1.2.1.5.5.5s.1.3.1.5-.1.2-.3.2H63.7c-.1,0-.3,0-.3-.2s-.1-.5.1-.6.3-.2.2-.5-.1-.4-.6-.4h-.7c-.4,0-.4,0-.6.4A1,1,0,0,1,62,83.5Zm1.5-1.6a7.83,7.83,0,0,0-.5-1.4,7.83,7.83,0,0,0-.5,1.4A1.7,1.7,0,0,0,63.5,81.9Z"/>
    <path d="M55.2,84.4a2.77,2.77,0,0,1-.9-.1c-.6-.2-.8-.6-.8-1.3a.27.27,0,0,1,.3-.3H54c.2,0,.3,0,.3.3s.2.5.5.6h.7c.5-.2.6-.7.2-1a.86.86,0,0,0-.6-.3,3.56,3.56,0,0,1-.9-.4,1.36,1.36,0,0,1-.7-1.3,1.29,1.29,0,0,1,.9-1.2,1.79,1.79,0,0,1,1.6.1.9.9,0,0,1,.6,1.2.21.21,0,0,1-.2.2H56c-.2,0-.3,0-.3-.2a.47.47,0,0,0-.5-.5c-.3,0-.7-.1-.9.3a.62.62,0,0,0,.1.7,2.19,2.19,0,0,0,.5.3,3.56,3.56,0,0,1,.9.4,1.37,1.37,0,0,1,.9,1.5,1.49,1.49,0,0,1-1.3,1.2C55.4,84.4,55.3,84.4,55.2,84.4Z"/>
    <path d="M43.6,9.3a2.4,2.4,0,1,1,4.8.1,2.4,2.4,0,1,1-4.8-.1Z"/>
    <path d="M18.2,23.6a2.43,2.43,0,0,1,2.4-2.4A2.34,2.34,0,0,1,23,23.7a2.46,2.46,0,0,1-2.5,2.4A2.51,2.51,0,0,1,18.2,23.6Z"/>
    <path d="M99.8,36.4a2.37,2.37,0,0,1-2.4,2.4,2.45,2.45,0,1,1,2.4-2.4Z"/>
    <path d="M85.6,23.5c1.2-1.1,2.3-2.2,3.4-3.2.2-.2.3-.1.4,0,.2.3.5.5.7.8a2.49,2.49,0,0,1-3.6,3.4A9,9,0,0,0,85.6,23.5Z"/>
    <path d="M62.7,8.5l-1.6-.3c-.2,0-.2-.1-.2-.3.1-.5.1-.9.2-1.4a.22.22,0,0,1,.2-.2l1.7.3a1,1,0,0,1,.7,1A1.16,1.16,0,0,1,62.7,8.5Z"/>
    <path d="M76.3,13.1a16.2,16.2,0,0,1-.1,2.2c-.5-.3-1-.5-1.6-.8A17.75,17.75,0,0,1,76.3,13.1Z"/>
    <path d="M60.4,98.7a3.28,3.28,0,0,1,1.7-.1,2,2,0,0,1,1.6,2,2.08,2.08,0,0,1-1.4,2.1c-.3.1-.7.1-1,.2s-.3,0-.3-.2C60.8,101.3,60.6,100,60.4,98.7Z"/>
    <path d="M49.4,100.3c.1.2.1.3.2.4.1.4.3.8.4,1.3-.5-.1-1-.1-1.5-.2Z"/>
    <path d="M62.9,54.6a4.16,4.16,0,0,1,4.2,4.2,4.2,4.2,0,1,1-4.2-4.2Z"/>
  </g>
</svg>
