<svg xmlns="http://www.w3.org/2000/svg" width="6.09in" height="2.97in" viewBox="0 0 438.8 213.85">
  <defs>
    <style>
      .a {
        fill: #231f20;
      }
    </style>
  </defs>
  <title>logo</title>
  <g>
    <path class="a" d="M365.17,957.68q-22.07,0-22.07,22.39v85.76q0,22.45,22.07,22.45t22.12-22.45v-39.89a1.14,1.14,0,0,0-1.14-1.14H365.28a1.14,1.14,0,0,0-1.14,1.14v12.94a1.14,1.14,0,0,0,1.14,1.14h5.49a1.14,1.14,0,0,1,1.14,1.14v24.67q0,7.23-6.74,7.23t-6.69-7.23V980.07q0-7.23,6.63-7.23h.11q6.68.05,6.68,7.23v24.72a1.14,1.14,0,0,0,1.14,1.14h13.1a1.14,1.14,0,0,0,1.14-1.14V980.07Q387.29,957.68,365.17,957.68Z" transform="translate(-343.1 -874.43)"/>
    <path class="a" d="M435.36,1037a1.15,1.15,0,0,1,.62-1.44q11.13-4.65,11.13-18.15v-16q0-22.39-20.49-22.45H405.37a1.14,1.14,0,0,0-1.14,1.14V1084.4a1.14,1.14,0,0,0,1.14,1.14h13.1a1.14,1.14,0,0,0,1.14-1.14v-44.5a1.14,1.14,0,0,1,2.24-.32l13.34,45.15a1.14,1.14,0,0,0,1.09.82h14.39a1.14,1.14,0,0,0,1.08-1.52Zm-3.63-19.59q0,5.11-4.19,6.79a14.82,14.82,0,0,1-4.4.44h-2.39a1.14,1.14,0,0,1-1.14-1.14V995.21a1.14,1.14,0,0,1,1.14-1.14H425q6.69,0,6.69,7.28Z" transform="translate(-343.1 -874.43)"/>
    <path class="a" d="M485.85,977.21q-22.07,0-22.07,22.39v65.22q0,22.45,22.07,22.45T508,1064.83V999.61Q508,977.22,485.85,977.21Zm6.74,87.62q0,7.23-6.74,7.23t-6.68-7.23V999.61q0-7.23,6.63-7.23h.11q6.69.05,6.69,7.23Z" transform="translate(-343.1 -874.43)"/>
    <path class="a" d="M608.51,978.9H595.27a1.14,1.14,0,0,0-1.13,1l-9.61,72.64a1.14,1.14,0,0,1-2.26,0l-9.61-72.64a1.14,1.14,0,0,0-1.13-1H558.26a1.14,1.14,0,0,0-1.13,1l-9.61,72.64a1.14,1.14,0,0,1-2.26,0l-9.61-72.64a1.14,1.14,0,0,0-1.13-1H521.33a1.14,1.14,0,0,0-1.13,1.29l4.83,36.43,10.72,68a1.14,1.14,0,0,0,1.13,1H556a1.14,1.14,0,0,0,1.13-1l6.67-46.27a1.14,1.14,0,0,1,2.26,0l6.71,46.27a1.14,1.14,0,0,0,1.13,1H593a1.14,1.14,0,0,0,1.13-1l10.67-67.85,4.83-36.54A1.14,1.14,0,0,0,608.51,978.9Z" transform="translate(-343.1 -874.43)"/>
    <path class="a" d="M661.71,978.9H624.09A1.14,1.14,0,0,0,623,980V1084.4a1.14,1.14,0,0,0,1.14,1.14h37.61a1.14,1.14,0,0,0,1.14-1.14v-12.88a1.14,1.14,0,0,0-1.14-1.14H639.47a1.14,1.14,0,0,1-1.14-1.14V1041a1.14,1.14,0,0,1,1.14-1.14h18.81a1.14,1.14,0,0,0,1.14-1.14v-12.94a1.14,1.14,0,0,0-1.14-1.14H639.47a1.14,1.14,0,0,1-1.14-1.14V995.21a1.14,1.14,0,0,1,1.14-1.14h22.23a1.14,1.14,0,0,0,1.14-1.14V980A1.14,1.14,0,0,0,661.71,978.9Z" transform="translate(-343.1 -874.43)"/>
    <path class="a" d="M709.29,1037a1.15,1.15,0,0,1,.62-1.44q11.13-4.65,11.13-18.15v-16q0-22.39-20.49-22.45H679.3a1.14,1.14,0,0,0-1.14,1.14V1084.4a1.14,1.14,0,0,0,1.14,1.14h13.1a1.14,1.14,0,0,0,1.14-1.14v-44.5a1.14,1.14,0,0,1,2.24-.32l13.34,45.15a1.14,1.14,0,0,0,1.09.82H724.6a1.14,1.14,0,0,0,1.08-1.52Zm-3.63-19.59q0,5.11-4.19,6.79a14.81,14.81,0,0,1-4.4.44h-2.39a1.14,1.14,0,0,1-1.14-1.14V995.21a1.14,1.14,0,0,1,1.14-1.14H699q6.68,0,6.68,7.28Z" transform="translate(-343.1 -874.43)"/>
    <path class="a" d="M767.66,994.42h13.1a1.14,1.14,0,0,0,1.14-1.14V980.07q0-22.39-22.12-22.39t-22.07,22.39v18.21q0,14.73,14.4,25t14.4,18v24.5q0,7.23-6.68,7.23t-6.74-7.23v-13.21a1.14,1.14,0,0,0-1.14-1.14h-13.1a1.14,1.14,0,0,0-1.14,1.14v13.21q0,22.39,22.12,22.45t22.07-22.45V1040q0-14.35-14.4-24.62T753.09,998V980.07q0-7.23,6.63-7.23h.11q6.68.05,6.68,7.23v13.21A1.14,1.14,0,0,0,767.66,994.42Z" transform="translate(-343.1 -874.43)"/>
    <path class="a" d="M565,951.57l1.84-2c14.09-15,14.23-44.15.35-70.92L565,874.43l-2.22,4.26c-13.81,26.51-13.63,55.67.43,70.91Z" transform="translate(-343.1 -874.43)"/>
    <path class="a" d="M573.66,961.89l2.32.16q.6,0,1.21,0c6.48,0,13.84-3.54,19.94-9.65,6.52-6.53,10.12-14.47,9.63-21.23l-.2-2.79-2.75.52C587.41,932,573.6,946,573.65,959.57Z" transform="translate(-343.1 -874.43)"/>
    <path class="a" d="M522.47,929.3l.2,2.72c.59,8.19,6.19,17.63,14.26,24.07,5.14,4.1,10.54,6.33,15.14,6.33a13,13,0,0,0,2-.15l2.1-.32,0-2.13c.14-14.57-15.78-30.24-31-30.49Z" transform="translate(-343.1 -874.43)"/>
    <rect class="a" x="584.01" y="884.27" width="24.48" height="7.11" transform="translate(-737.14 417.24) rotate(-78.3)"/>
    <rect class="a" x="615.19" y="893.17" width="24.48" height="7.11" transform="translate(-784.83 256.18) rotate(-67.36)"/>
    <rect class="a" x="643.34" y="908.25" width="24.48" height="7.11" transform="translate(-810.36 57.66) rotate(-55.32)"/>
    <path class="a" d="M639.27,935.54l3,2,3.94-5.92-3-2a141.09,141.09,0,0,0-51.28-21.15l-3.49-.69-1.37,7,3.49.68A134,134,0,0,1,639.27,935.54Z" transform="translate(-343.1 -874.43)"/>
    <rect class="a" x="529.3" y="875.59" width="7.11" height="24.48" transform="translate(-512.05 -747.94) rotate(-11.7)"/>
    <rect class="a" x="498.12" y="884.49" width="7.11" height="24.48" transform="translate(-649.58 -612.27) rotate(-22.64)"/>
    <rect class="a" x="469.97" y="899.57" width="7.11" height="24.48" transform="translate(-777.78 -443.03) rotate(-34.68)"/>
    <path class="a" d="M486.88,937.51l3-2a134.05,134.05,0,0,1,48.71-20.09l3.49-.68-1.37-7-3.49.69a141.09,141.09,0,0,0-51.28,21.15l-3,2Z" transform="translate(-343.1 -874.43)"/>
  </g>
</svg>
