<svg xmlns="http://www.w3.org/2000/svg" width="0.44in" height="0.44in" viewBox="0 0 32 32">
  <defs>
    <style>
      .a {
        fill: #fff;
      }
    </style>
  </defs>
  <title>close-filters</title>
  <g>
    <path class="a" d="M16,0A16,16,0,1,0,32,16,16,16,0,0,0,16,0Zm0,30A14,14,0,1,1,30,16,14,14,0,0,1,16,30Z"/>
    <path class="a" d="M22.73,21.27,17.46,16l5.24-5.19a1,1,0,0,0,0-1.41,1,1,0,0,0-1.43,0L16,14.58,10.73,9.27A1,1,0,0,0,9.3,10.7L14.6,16,9.27,21.29a1,1,0,0,0,0,1.41,1,1,0,0,0,1.43,0L16,17.43,21.3,22.7a1,1,0,1,0,1.43-1.43Z"/>
  </g>
</svg>
