<svg xmlns="http://www.w3.org/2000/svg" width="77.59" height="82.83" viewBox="0 0 77.59 82.83">
  <defs>
    <style>
      .a {
        fill: #f4c317;
        fill-rule: evenodd;
      }
    </style>
  </defs>
  <title>tag-heart</title>
  <path class="a" d="M73.91,72.29a22.55,22.55,0,0,1-7.69,7.31A23.73,23.73,0,0,1,60.31,82a26.37,26.37,0,0,1-6.59.82A24.88,24.88,0,0,1,47.53,82a31.31,31.31,0,0,1-6-2.21,45.26,45.26,0,0,1-5.79-3.41A69.09,69.09,0,0,1,30.11,72q-2.82-2.42-5.61-5.15t-5.59-5.69q-2.8-3-5.62-6L9.12,50.67Q7,48.41,4.85,46.2T.5,41.88L0,41.41l.51-.48Q2.79,38.77,5,36.5t4.44-4.59q2.2-2.32,4.35-4.61,2.82-3,5.61-5.93T25,15.75q2.77-2.71,5.56-5.09a70.49,70.49,0,0,1,5.61-4.34A45.19,45.19,0,0,1,41.87,3,30.27,30.27,0,0,1,47.7.78a24,24,0,0,1,6-.78,26.37,26.37,0,0,1,6.59.82,23.73,23.73,0,0,1,5.91,2.41,22.55,22.55,0,0,1,7.69,7.31,23.36,23.36,0,0,1,2,3.86,23.71,23.71,0,0,1,1.25,4.15,22.74,22.74,0,0,1,.42,4.31,21.42,21.42,0,0,1-.72,5.52,20.52,20.52,0,0,1-2.09,5,21.48,21.48,0,0,1-3.35,4.39,24.55,24.55,0,0,1-4.56,3.61A24.38,24.38,0,0,1,71.43,45a21.37,21.37,0,0,1,3.36,4.39,20.39,20.39,0,0,1,2.09,5A21.59,21.59,0,0,1,77.59,60a22.18,22.18,0,0,1-.42,4.31,23.29,23.29,0,0,1-3.26,8Z"/>
</svg>
