<svg xmlns="http://www.w3.org/2000/svg" width="42.91" height="18.71" viewBox="0 0 42.91 18.71">
  <title>flourish-waves</title>
  <g>
    <path d="M41.41,6.34A5.78,5.78,0,0,1,37,4.23C36.2,3.4,35.76,3,34.76,3s-1.44.4-2.26,1.23a5.62,5.62,0,0,1-8.78,0C22.9,3.4,22.45,3,21.46,3S20,3.4,19.19,4.23a5.78,5.78,0,0,1-4.39,2.11,5.78,5.78,0,0,1-4.39-2.11C9.59,3.4,9.15,3,8.15,3s-1.44.4-2.26,1.23A5.78,5.78,0,0,1,1.5,6.34a1.5,1.5,0,0,1,0-3c1,0,1.44-.4,2.26-1.23A5.78,5.78,0,0,1,8.15,0a5.78,5.78,0,0,1,4.39,2.11c.83.83,1.27,1.23,2.26,1.23s1.44-.4,2.26-1.23a5.62,5.62,0,0,1,8.78,0c.83.83,1.27,1.23,2.26,1.23s1.44-.4,2.26-1.23a5.62,5.62,0,0,1,8.78,0c.83.83,1.27,1.23,2.26,1.23a1.5,1.5,0,0,1,0,3Z"/>
    <path d="M41.41,18.71A5.78,5.78,0,0,1,37,16.6c-.83-.83-1.27-1.23-2.26-1.23s-1.44.4-2.26,1.23a5.62,5.62,0,0,1-8.78,0c-.83-.83-1.27-1.23-2.26-1.23s-1.44.4-2.26,1.23a5.78,5.78,0,0,1-4.39,2.11,5.78,5.78,0,0,1-4.39-2.11c-.83-.83-1.27-1.23-2.26-1.23s-1.44.4-2.26,1.23A5.78,5.78,0,0,1,1.5,18.71a1.5,1.5,0,0,1,0-3c1,0,1.44-.4,2.26-1.23a5.78,5.78,0,0,1,4.39-2.11,5.78,5.78,0,0,1,4.39,2.11c.83.83,1.27,1.23,2.26,1.23s1.44-.4,2.26-1.23a5.62,5.62,0,0,1,8.78,0c.83.83,1.27,1.23,2.26,1.23s1.44-.4,2.26-1.23a5.62,5.62,0,0,1,8.78,0c.83.83,1.27,1.23,2.26,1.23a1.5,1.5,0,1,1,0,3Z"/>
  </g>
</svg>
